<svg width="1583" height="1000" viewBox="0 0 1583 1000" fill="none" xmlns="http://www.w3.org/2000/svg">
<rect width="1583" height="1000" fill="#EFFAFB"/>
<path d="M997.409 259.286C996.22 264.441 990.272 290.215 984.324 317.179L973.617 365.556L959.739 352.074L945.464 338.592L877.261 403.622C832.453 446.448 806.282 468.653 800.731 468.653C795.576 468.653 781.301 458.343 765.44 442.879C750.768 428.604 736.493 417.104 733.321 417.104C730.545 417.104 720.235 423.052 709.925 430.19C678.996 452.396 678.6 450.809 707.943 421.07L736.096 392.52L753.94 402.829C763.853 408.381 776.146 413.139 781.301 412.743C789.628 412.346 789.628 411.949 778.525 408.777C772.181 406.795 762.267 400.847 757.112 395.295C740.458 377.848 732.131 381.417 685.737 427.018L643.705 468.653H614.362H584.622L648.067 405.208C682.565 370.71 716.27 340.178 722.218 337.402C736.493 331.454 744.82 336.609 775.353 371.504C788.042 385.779 800.731 397.278 803.903 397.278C810.644 397.278 907.794 307.266 907.794 300.921C907.794 298.542 902.242 291.008 895.501 283.871L883.209 271.182L922.465 264.441C943.878 260.475 967.669 256.114 975.204 254.527C998.202 249.373 1000.18 249.769 997.409 259.286Z" fill="#00B050"/>
<path d="M757.112 395.295C765.329 403.903 775.451 408.183 785.86 411.157L803.903 397.278C800.731 397.278 788.042 385.779 775.353 371.504C744.82 336.609 736.493 331.454 722.218 337.402C716.27 340.178 682.565 370.71 648.067 405.208L584.622 468.653H614.362H643.705L685.737 427.018C732.131 381.417 740.458 377.848 757.112 395.295Z" fill="#1A1F3A"/>
<path d="M833.643 294.18C853.469 294.18 863.779 266.423 849.108 253.338C826.109 232.718 794.783 264.44 816.592 286.25C820.954 290.611 828.885 294.18 833.643 294.18Z" fill="#00B050"/>
<path d="M857.831 310.041C844.349 310.041 828.092 308.059 821.747 305.68C815.799 303.697 802.714 294.18 793.197 285.06C783.68 275.94 776.939 271.181 777.732 274.75C784.87 295.37 792.801 331.454 794.783 354.453C796.369 369.124 799.145 382.606 801.524 383.796C803.507 384.985 822.937 369.124 843.953 348.108L882.813 310.041H857.831Z" fill="#00B050"/>
<path d="M638.154 312.024C655.998 328.282 681.772 304.887 668.29 284.267C661.153 273.561 643.309 270.785 634.982 279.112C627.844 286.25 629.43 304.094 638.154 312.024Z" fill="#00B050"/>
<path d="M659.963 374.676C676.221 359.211 681.375 350.488 687.72 328.679C692.478 314.007 695.651 302.111 695.651 302.111C695.254 302.111 690.099 307.663 683.755 314.007C672.255 325.903 648.067 335.42 637.757 332.247C634.585 331.454 621.5 329.472 608.414 328.282L584.622 325.903L598.501 333.437C618.724 344.54 633.395 361.591 636.964 379.038L640.136 394.106L659.963 374.676Z" fill="#00B050"/>
<path d="M765.043 256.113C766.53 247.588 759.095 232.718 753.147 229.744C738.872 219.831 713.494 234.304 713.494 252.545C713.494 265.234 726.58 278.319 739.269 278.319C750.372 278.319 765.043 265.63 765.043 256.113Z" fill="#00D4FF"/>
<path d="M782.491 347.315C777.732 316.386 772.577 302.507 762.268 294.577C742.838 279.112 719.046 287.836 705.96 315.196C701.202 324.713 697.633 333.437 697.633 334.626C697.633 336.212 704.374 333.437 712.701 329.075C732.528 317.972 745.217 321.541 767.026 344.539L784.473 362.78L782.491 347.315Z" fill="#00D4FF"/>
<path d="M509.782 565.653V492.832H543.072C549.73 492.832 555.451 493.907 560.237 496.057C565.091 498.207 568.836 501.328 571.472 505.42C574.107 509.442 575.425 514.228 575.425 519.776C575.425 525.255 574.107 530.006 571.472 534.028C568.836 537.981 565.091 541.033 560.237 543.183C555.451 545.263 549.73 546.304 543.072 546.304H521.225L530.38 537.669V565.653H509.782ZM554.827 565.653L536.726 539.126H558.676L576.881 565.653H554.827ZM530.38 539.854L521.225 530.387H541.823C546.123 530.387 549.313 529.451 551.394 527.578C553.544 525.706 554.619 523.105 554.619 519.776C554.619 516.378 553.544 513.742 551.394 511.87C549.313 509.997 546.123 509.061 541.823 509.061H521.225L530.38 499.594V539.854ZM605.722 521.024H639.532V536.421H605.722V521.024ZM607.178 549.737H645.253V565.653H586.788V492.832H643.901V508.749H607.178V549.737ZM656.683 565.653V492.832H673.64L713.796 541.31H705.785V492.832H725.967V565.653H709.01L668.855 517.175H676.865V565.653H656.683ZM759.43 521.024H793.24V536.421H759.43V521.024ZM760.886 549.737H798.961V565.653H740.496V492.832H797.609V508.749H760.886V549.737ZM827.373 565.653L803.758 492.832H824.98L844.85 555.874H834.135L855.045 492.832H873.978L893.744 555.874H883.445L903.939 492.832H923.6L899.985 565.653H877.931L861.078 512.078H867.008L849.427 565.653H827.373ZM949.914 521.024H983.724V536.421H949.914V521.024ZM951.37 549.737H989.445V565.653H930.981V492.832H988.093V508.749H951.37V549.737ZM1000.88 565.653V492.832H1035.31C1043.35 492.832 1050.43 494.323 1056.53 497.306C1062.63 500.288 1067.39 504.484 1070.78 509.893C1074.25 515.303 1075.99 521.753 1075.99 529.243C1075.99 536.664 1074.25 543.113 1070.78 548.592C1067.39 554.002 1062.63 558.198 1056.53 561.18C1050.43 564.162 1043.35 565.653 1035.31 565.653H1000.88ZM1021.47 549.216H1034.48C1038.64 549.216 1042.24 548.454 1045.3 546.928C1048.42 545.333 1050.84 543.044 1052.58 540.062C1054.31 537.01 1055.18 533.404 1055.18 529.243C1055.18 525.012 1054.31 521.406 1052.58 518.424C1050.84 515.441 1048.42 513.187 1045.3 511.662C1042.24 510.067 1038.64 509.269 1034.48 509.269H1021.47V549.216Z" fill="#1A1F3A"/>
<path d="M603.108 582.974H640.871V716.478H603.108V582.974ZM551.613 716.478H513.85V582.974H551.613V716.478ZM605.778 664.412H548.943V633.133H605.778V664.412ZM734.832 719.149C724.152 719.149 714.298 717.432 705.27 713.999C696.243 710.566 688.36 705.734 681.621 699.504C675.009 693.147 669.86 685.772 666.173 677.381C662.485 668.989 660.642 659.771 660.642 649.726C660.642 639.681 662.485 630.463 666.173 622.071C669.86 613.68 675.009 606.369 681.621 600.139C688.36 593.781 696.243 588.886 705.27 585.453C714.298 582.02 724.152 580.303 734.832 580.303C745.64 580.303 755.494 582.02 764.394 585.453C773.422 588.886 781.241 593.781 787.853 600.139C794.464 606.369 799.614 613.68 803.301 622.071C807.116 630.463 809.023 639.681 809.023 649.726C809.023 659.771 807.116 669.052 803.301 677.571C799.614 685.963 794.464 693.274 787.853 699.504C781.241 705.734 773.422 710.566 764.394 713.999C755.494 717.432 745.64 719.149 734.832 719.149ZM734.832 687.87C739.918 687.87 744.623 686.98 748.946 685.2C753.396 683.42 757.21 680.877 760.389 677.571C763.695 674.138 766.238 670.07 768.018 665.365C769.925 660.661 770.879 655.448 770.879 649.726C770.879 643.877 769.925 638.664 768.018 634.087C766.238 629.382 763.695 625.377 760.389 622.071C757.21 618.638 753.396 616.032 748.946 614.252C744.623 612.472 739.918 611.582 734.832 611.582C729.746 611.582 724.978 612.472 720.528 614.252C716.205 616.032 712.391 618.638 709.085 622.071C705.906 625.377 703.363 629.382 701.456 634.087C699.676 638.664 698.786 643.877 698.786 649.726C698.786 655.448 699.676 660.661 701.456 665.365C703.363 670.07 705.906 674.138 709.085 677.571C712.391 680.877 716.205 683.42 720.528 685.2C724.978 686.98 729.746 687.87 734.832 687.87ZM828.801 716.478V582.974H889.832C902.038 582.974 912.528 584.944 921.301 588.886C930.201 592.828 937.067 598.549 941.899 606.051C946.73 613.425 949.146 622.199 949.146 632.37C949.146 642.415 946.73 651.125 941.899 658.499C937.067 665.874 930.201 671.595 921.301 675.664C912.528 679.606 902.038 681.576 889.832 681.576H849.78L866.564 665.174V716.478H828.801ZM866.564 669.18L849.78 651.824H887.543C895.426 651.824 901.275 650.107 905.09 646.674C909.031 643.241 911.002 638.473 911.002 632.37C911.002 626.14 909.031 621.309 905.09 617.876C901.275 614.443 895.426 612.726 887.543 612.726H849.78L866.564 595.37V669.18ZM1002.27 634.659H1064.25V662.886H1002.27V634.659ZM1004.94 687.298H1074.74V716.478H967.558V582.974H1072.26V612.154H1004.94V687.298Z" fill="#1A1F3A"/>
<path d="M512.151 766.478V753.462L513.835 757.922L499.817 734.619H507.645L518.386 752.506H513.88L524.667 734.619H531.904L517.886 757.922L519.524 753.462V766.478H512.151ZM550.45 767.025C547.932 767.025 545.596 766.615 543.441 765.796C541.318 764.976 539.467 763.823 537.889 762.337C536.341 760.85 535.128 759.105 534.248 757.103C533.398 755.1 532.974 752.916 532.974 750.549C532.974 748.182 533.398 745.998 534.248 743.995C535.128 741.992 536.357 740.248 537.934 738.761C539.512 737.274 541.363 736.121 543.487 735.302C545.611 734.483 547.917 734.073 550.405 734.073C552.923 734.073 555.229 734.483 557.323 735.302C559.447 736.121 561.283 737.274 562.83 738.761C564.408 740.248 565.637 741.992 566.517 743.995C567.397 745.967 567.836 748.152 567.836 750.549C567.836 752.916 567.397 755.115 566.517 757.148C565.637 759.151 564.408 760.895 562.83 762.382C561.283 763.839 559.447 764.976 557.323 765.796C555.229 766.615 552.939 767.025 550.45 767.025ZM550.405 760.744C551.831 760.744 553.136 760.501 554.319 760.016C555.533 759.53 556.595 758.832 557.505 757.922C558.415 757.012 559.113 755.935 559.599 754.691C560.114 753.447 560.372 752.066 560.372 750.549C560.372 749.032 560.114 747.651 559.599 746.407C559.113 745.163 558.415 744.086 557.505 743.176C556.625 742.265 555.578 741.568 554.365 741.082C553.151 740.597 551.831 740.354 550.405 740.354C548.979 740.354 547.659 740.597 546.445 741.082C545.262 741.568 544.215 742.265 543.305 743.176C542.395 744.086 541.682 745.163 541.166 746.407C540.68 747.651 540.438 749.032 540.438 750.549C540.438 752.036 540.68 753.416 541.166 754.691C541.682 755.935 542.38 757.012 543.259 757.922C544.17 758.832 545.232 759.53 546.445 760.016C547.659 760.501 548.979 760.744 550.405 760.744ZM588.898 767.025C584.377 767.025 580.842 765.765 578.293 763.247C575.744 760.729 574.47 757.133 574.47 752.46V734.619H581.843V752.187C581.843 755.222 582.465 757.406 583.709 758.741C584.953 760.076 586.698 760.744 588.943 760.744C591.188 760.744 592.933 760.076 594.177 758.741C595.421 757.406 596.043 755.222 596.043 752.187V734.619H603.325V752.46C603.325 757.133 602.051 760.729 599.502 763.247C596.953 765.765 593.419 767.025 588.898 767.025ZM618.043 766.478V740.627H607.848V734.619H635.611V740.627H625.416V766.478H618.043ZM662.789 734.619H670.163V766.478H662.789V734.619ZM648.316 766.478H640.943V734.619H648.316V766.478ZM663.336 753.416H647.77V747.181H663.336V753.416ZM689.133 766.478L703.333 734.619H710.615L724.861 766.478H717.124L705.472 738.351H708.385L696.688 766.478H689.133ZM696.233 759.651L698.19 754.053H714.575L716.578 759.651H696.233ZM729.532 766.478V734.619H735.63L749.193 757.103H745.962L759.297 734.619H765.35L765.441 766.478H758.524L758.478 745.224H759.752L749.102 763.11H745.78L734.902 745.224H736.45V766.478H729.532ZM774.366 766.478V734.619H789.931C793.936 734.619 796.94 735.378 798.943 736.895C800.976 738.412 801.992 740.415 801.992 742.903C801.992 744.571 801.582 746.028 800.763 747.272C799.944 748.486 798.821 749.426 797.395 750.094C795.969 750.761 794.331 751.095 792.48 751.095L793.345 749.229C795.347 749.229 797.122 749.563 798.67 750.23C800.217 750.867 801.415 751.823 802.265 753.098C803.145 754.372 803.585 755.935 803.585 757.785C803.585 760.516 802.508 762.655 800.354 764.203C798.199 765.72 795.028 766.478 790.841 766.478H774.366ZM781.693 760.926H790.295C792.207 760.926 793.648 760.622 794.619 760.016C795.62 759.378 796.121 758.377 796.121 757.012C796.121 755.677 795.62 754.691 794.619 754.053C793.648 753.386 792.207 753.052 790.295 753.052H781.147V747.682H789.021C790.811 747.682 792.176 747.378 793.117 746.771C794.088 746.134 794.573 745.178 794.573 743.904C794.573 742.66 794.088 741.734 793.117 741.128C792.176 740.49 790.811 740.172 789.021 740.172H781.693V760.926ZM806.345 766.478L820.545 734.619H827.827L842.073 766.478H834.336L822.684 738.351H825.597L813.9 766.478H806.345ZM813.445 759.651L815.402 754.053H831.787L833.79 759.651H813.445ZM857.212 767.025C854.663 767.025 852.22 766.691 849.884 766.023C847.548 765.325 845.667 764.43 844.241 763.338L846.744 757.785C848.109 758.756 849.717 759.56 851.568 760.198C853.449 760.804 855.346 761.108 857.257 761.108C858.714 761.108 859.882 760.971 860.762 760.698C861.672 760.395 862.34 759.985 862.764 759.469C863.189 758.954 863.401 758.362 863.401 757.694C863.401 756.845 863.068 756.177 862.4 755.692C861.733 755.176 860.853 754.766 859.76 754.463C858.668 754.129 857.454 753.826 856.119 753.553C854.815 753.249 853.495 752.885 852.16 752.46C850.855 752.036 849.657 751.489 848.564 750.822C847.472 750.154 846.577 749.274 845.879 748.182C845.211 747.09 844.878 745.694 844.878 743.995C844.878 742.174 845.363 740.521 846.334 739.034C847.335 737.517 848.822 736.318 850.794 735.439C852.797 734.528 855.3 734.073 858.304 734.073C860.307 734.073 862.279 734.316 864.221 734.801C866.163 735.256 867.877 735.954 869.364 736.895L867.088 742.493C865.601 741.643 864.115 741.021 862.628 740.627C861.141 740.202 859.685 739.99 858.259 739.99C856.832 739.99 855.664 740.157 854.754 740.49C853.844 740.824 853.191 741.264 852.797 741.81C852.403 742.326 852.205 742.933 852.205 743.631C852.205 744.45 852.539 745.118 853.207 745.633C853.874 746.119 854.754 746.513 855.846 746.817C856.939 747.12 858.137 747.424 859.442 747.727C860.777 748.03 862.097 748.379 863.401 748.774C864.737 749.168 865.95 749.699 867.043 750.367C868.135 751.034 869.015 751.914 869.682 753.007C870.38 754.099 870.729 755.479 870.729 757.148C870.729 758.938 870.228 760.577 869.227 762.064C868.226 763.55 866.724 764.749 864.721 765.659C862.749 766.569 860.246 767.025 857.212 767.025ZM887.601 767.025C885.052 767.025 882.609 766.691 880.273 766.023C877.937 765.325 876.055 764.43 874.629 763.338L877.133 757.785C878.498 758.756 880.106 759.56 881.957 760.198C883.838 760.804 885.735 761.108 887.646 761.108C889.102 761.108 890.271 760.971 891.151 760.698C892.061 760.395 892.728 759.985 893.153 759.469C893.578 758.954 893.79 758.362 893.79 757.694C893.79 756.845 893.457 756.177 892.789 755.692C892.122 755.176 891.242 754.766 890.149 754.463C889.057 754.129 887.843 753.826 886.508 753.553C885.204 753.249 883.884 752.885 882.549 752.46C881.244 752.036 880.045 751.489 878.953 750.822C877.861 750.154 876.966 749.274 876.268 748.182C875.6 747.09 875.267 745.694 875.267 743.995C875.267 742.174 875.752 740.521 876.723 739.034C877.724 737.517 879.211 736.318 881.183 735.439C883.186 734.528 885.689 734.073 888.693 734.073C890.695 734.073 892.668 734.316 894.61 734.801C896.551 735.256 898.266 735.954 899.753 736.895L897.477 742.493C895.99 741.643 894.503 741.021 893.017 740.627C891.53 740.202 890.073 739.99 888.647 739.99C887.221 739.99 886.053 740.157 885.143 740.49C884.233 740.824 883.58 741.264 883.186 741.81C882.791 742.326 882.594 742.933 882.594 743.631C882.594 744.45 882.928 745.118 883.595 745.633C884.263 746.119 885.143 746.513 886.235 746.817C887.327 747.12 888.526 747.424 889.831 747.727C891.166 748.03 892.486 748.379 893.79 748.774C895.125 749.168 896.339 749.699 897.431 750.367C898.524 751.034 899.404 751.914 900.071 753.007C900.769 754.099 901.118 755.479 901.118 757.148C901.118 758.938 900.617 760.577 899.616 762.064C898.615 763.55 897.113 764.749 895.11 765.659C893.138 766.569 890.635 767.025 887.601 767.025ZM903.334 766.478L917.534 734.619H924.816L939.062 766.478H931.325L919.673 738.351H922.586L910.889 766.478H903.334ZM910.434 759.651L912.391 754.053H928.776L930.779 759.651H910.434ZM943.733 766.478V734.619H958.206C961.665 734.619 964.714 735.287 967.354 736.622C969.994 737.927 972.057 739.762 973.544 742.129C975.03 744.496 975.774 747.302 975.774 750.549C975.774 753.765 975.03 756.572 973.544 758.969C972.057 761.335 969.994 763.186 967.354 764.521C964.714 765.826 961.665 766.478 958.206 766.478H943.733ZM951.106 760.425H957.842C959.966 760.425 961.801 760.031 963.349 759.242C964.927 758.423 966.14 757.27 966.99 755.783C967.87 754.296 968.31 752.551 968.31 750.549C968.31 748.516 967.87 746.771 966.99 745.315C966.14 743.828 964.927 742.69 963.349 741.901C961.801 741.082 959.966 740.673 957.842 740.673H951.106V760.425ZM998.174 767.025C995.656 767.025 993.319 766.615 991.165 765.796C989.041 764.976 987.19 763.823 985.612 762.337C984.065 760.85 982.851 759.105 981.971 757.103C981.122 755.1 980.697 752.916 980.697 750.549C980.697 748.182 981.122 745.998 981.971 743.995C982.851 741.992 984.08 740.248 985.658 738.761C987.236 737.274 989.087 736.121 991.211 735.302C993.335 734.483 995.641 734.073 998.129 734.073C1000.65 734.073 1002.95 734.483 1005.05 735.302C1007.17 736.121 1009.01 737.274 1010.55 738.761C1012.13 740.248 1013.36 741.992 1014.24 743.995C1015.12 745.967 1015.56 748.152 1015.56 750.549C1015.56 752.916 1015.12 755.115 1014.24 757.148C1013.36 759.151 1012.13 760.895 1010.55 762.382C1009.01 763.839 1007.17 764.976 1005.05 765.796C1002.95 766.615 1000.66 767.025 998.174 767.025ZM998.129 760.744C999.555 760.744 1000.86 760.501 1002.04 760.016C1003.26 759.53 1004.32 758.832 1005.23 757.922C1006.14 757.012 1006.84 755.935 1007.32 754.691C1007.84 753.447 1008.1 752.066 1008.1 750.549C1008.1 749.032 1007.84 747.651 1007.32 746.407C1006.84 745.163 1006.14 744.086 1005.23 743.176C1004.35 742.265 1003.3 741.568 1002.09 741.082C1000.87 740.597 999.555 740.354 998.129 740.354C996.702 740.354 995.383 740.597 994.169 741.082C992.986 741.568 991.939 742.265 991.029 743.176C990.118 744.086 989.405 745.163 988.889 746.407C988.404 747.651 988.161 749.032 988.161 750.549C988.161 752.036 988.404 753.416 988.889 754.691C989.405 755.935 990.103 757.012 990.983 757.922C991.893 758.832 992.955 759.53 994.169 760.016C995.383 760.501 996.702 760.744 998.129 760.744ZM1022.47 766.478V734.619H1036.26C1039.11 734.619 1041.57 735.09 1043.63 736.03C1045.69 736.94 1047.29 738.26 1048.41 739.99C1049.53 741.719 1050.09 743.783 1050.09 746.18C1050.09 748.546 1049.53 750.594 1048.41 752.324C1047.29 754.023 1045.69 755.328 1043.63 756.238C1041.57 757.148 1039.11 757.603 1036.26 757.603H1026.56L1029.84 754.372V766.478H1022.47ZM1042.72 766.478L1034.76 754.918H1042.63L1050.68 766.478H1042.72ZM1029.84 755.191L1026.56 751.732H1035.85C1038.12 751.732 1039.82 751.247 1040.94 750.276C1042.07 749.274 1042.63 747.909 1042.63 746.18C1042.63 744.42 1042.07 743.054 1040.94 742.083C1039.82 741.112 1038.12 740.627 1035.85 740.627H1026.56L1029.84 737.123V755.191ZM1067.77 767.025C1065.22 767.025 1062.78 766.691 1060.44 766.023C1058.1 765.325 1056.22 764.43 1054.8 763.338L1057.3 757.785C1058.67 758.756 1060.27 759.56 1062.12 760.198C1064.01 760.804 1065.9 761.108 1067.81 761.108C1069.27 761.108 1070.44 760.971 1071.32 760.698C1072.23 760.395 1072.9 759.985 1073.32 759.469C1073.75 758.954 1073.96 758.362 1073.96 757.694C1073.96 756.845 1073.62 756.177 1072.96 755.692C1072.29 755.176 1071.41 754.766 1070.32 754.463C1069.22 754.129 1068.01 753.826 1066.68 753.553C1065.37 753.249 1064.05 752.885 1062.72 752.46C1061.41 752.036 1060.21 751.489 1059.12 750.822C1058.03 750.154 1057.13 749.274 1056.44 748.182C1055.77 747.09 1055.43 745.694 1055.43 743.995C1055.43 742.174 1055.92 740.521 1056.89 739.034C1057.89 737.517 1059.38 736.318 1061.35 735.439C1063.35 734.528 1065.86 734.073 1068.86 734.073C1070.86 734.073 1072.84 734.316 1074.78 734.801C1076.72 735.256 1078.43 735.954 1079.92 736.895L1077.64 742.493C1076.16 741.643 1074.67 741.021 1073.18 740.627C1071.7 740.202 1070.24 739.99 1068.81 739.99C1067.39 739.99 1066.22 740.157 1065.31 740.49C1064.4 740.824 1063.75 741.264 1063.35 741.81C1062.96 742.326 1062.76 742.933 1062.76 743.631C1062.76 744.45 1063.1 745.118 1063.76 745.633C1064.43 746.119 1065.31 746.513 1066.4 746.817C1067.49 747.12 1068.69 747.424 1070 747.727C1071.33 748.03 1072.65 748.379 1073.96 748.774C1075.29 749.168 1076.51 749.699 1077.6 750.367C1078.69 751.034 1079.57 751.914 1080.24 753.007C1080.94 754.099 1081.29 755.479 1081.29 757.148C1081.29 758.938 1080.78 760.577 1079.78 762.064C1078.78 763.55 1077.28 764.749 1075.28 765.659C1073.31 766.569 1070.8 767.025 1067.77 767.025Z" fill="#00B050"/>
</svg>
